<?xml version="1.0" encoding="UTF-8"?>
<!DOCTYPE svg PUBLIC "-//W3C//DTD SVG 1.1//EN" "http://www.w3.org/Graphics/SVG/1.1/DTD/svg11.dtd">
<svg version="1.1" xmlns="http://www.w3.org/2000/svg" xmlns:xlink="http://www.w3.org/1999/xlink" x="0" y="0" width="32" height="32" viewBox="0, 0, 32, 32">
  <g id="Destino">
    <g>
      <path d="M16.5,30 C9.044,30 3,23.956 3,16.5 C3,9.044 9.044,3 16.5,3 C23.956,3 30,9.044 30,16.5 C30,23.956 23.956,30 16.5,30 z" fill-opacity="0" stroke="#000000" stroke-width="2" stroke-linecap="round" stroke-linejoin="round"/>
      <g>
        <path d="M15.964,7 L15.964,7 C16.497,7 16.929,7.518 16.929,8.157 L16.929,17.414 C16.929,18.053 16.497,18.571 15.964,18.571 L15.964,18.571 C15.432,18.571 15,18.053 15,17.414 L15,8.157 C15,7.518 15.432,7 15.964,7 z" fill="#000000"/>
        <path d="M15.964,7 L15.964,7 C16.497,7 16.929,7.518 16.929,8.157 L16.929,17.414 C16.929,18.053 16.497,18.571 15.964,18.571 L15.964,18.571 C15.432,18.571 15,18.053 15,17.414 L15,8.157 C15,7.518 15.432,7 15.964,7 z" fill-opacity="0" stroke="#000000" stroke-width="1" stroke-linecap="round" stroke-linejoin="round"/>
      </g>
      <g>
        <path d="M23.864,17.964 L23.864,17.964 C23.864,18.497 23.467,18.929 22.978,18.929 L15.886,18.929 C15.397,18.929 15,18.497 15,17.964 L15,17.964 C15,17.432 15.397,17 15.886,17 L22.978,17 C23.467,17 23.864,17.432 23.864,17.964 z" fill="#000000"/>
        <path d="M23.864,17.964 L23.864,17.964 C23.864,18.497 23.467,18.929 22.978,18.929 L15.886,18.929 C15.397,18.929 15,18.497 15,17.964 L15,17.964 C15,17.432 15.397,17 15.886,17 L22.978,17 C23.467,17 23.864,17.432 23.864,17.964 z" fill-opacity="0" stroke="#000000" stroke-width="1" stroke-linecap="round" stroke-linejoin="round"/>
      </g>
    </g>
  </g>
</svg>
