<svg width="25" height="26" viewBox="0 0 25 26" fill="none" xmlns="http://www.w3.org/2000/svg">
<path d="M22.4443 25.4248H2.43791C1.77103 25.4248 1.10415 25.0913 0.603989 24.5912C0.103829 24.091 -0.0628906 23.3408 0.0204693 22.6739C0.437269 19.0894 2.85471 15.9217 7.0227 13.7544C5.68895 12.2539 4.93871 10.2533 4.93871 8.16927C4.93871 3.66784 8.35646 0 12.5245 0C16.6925 0 19.9435 3.66784 19.9435 8.16927C19.9435 10.2533 19.1933 12.2539 17.8595 13.7544C21.9441 15.9217 24.4449 19.0894 24.8617 22.6739C24.9451 23.3408 24.695 24.091 24.2782 24.5912C23.778 25.0913 23.1112 25.4248 22.4443 25.4248ZM3.43823 22.0904H21.3606C20.6104 19.4229 18.1929 17.6723 16.1089 16.5886C15.2753 16.1718 14.6085 15.3382 14.4417 14.3379C14.275 13.3376 14.5251 12.3373 15.2753 11.587C16.1089 10.6701 16.6091 9.41967 16.6091 8.08591C16.6091 5.4184 14.6918 3.25104 12.3577 3.25104C10.0237 3.25104 8.18974 5.50176 8.18974 8.16927C8.18974 9.50303 8.6899 10.7534 9.5235 11.6704C10.1904 12.4206 10.5238 13.4209 10.3571 14.4213C10.1904 15.4216 9.60686 16.1718 8.6899 16.672C6.6059 17.6723 4.18847 19.4229 3.43823 22.0904Z" fill="#989A9D"/>
</svg>
